<svg xmlns="http://www.w3.org/2000/svg" xmlns:xlink="http://www.w3.org/1999/xlink" width="50" zoomAndPan="magnify" viewBox="0 0 37.5 37.499999" height="50" preserveAspectRatio="xMidYMid meet" version="1.0"><defs><clipPath id="73b21818f3"><path d="M 0 0 L 37.007812 0 L 37.007812 37.007812 L 0 37.007812 Z M 0 0 " clip-rule="nonzero"/></clipPath><clipPath id="5cc893c782"><path d="M 7.558594 2.867188 L 29.601562 2.867188 L 29.601562 33.953125 L 7.558594 33.953125 Z M 7.558594 2.867188 " clip-rule="nonzero"/></clipPath><clipPath id="14fd664f89"><path d="M 7.453125 13.726562 C 7.453125 14.566406 7.496094 15.230469 7.660156 16.050781 C 7.886719 17.175781 8.289062 18.222656 8.84375 19.214844 C 9.101562 19.667969 9.84375 21.039062 10.058594 21.324219 L 12.964844 25.113281 C 12.769531 25.410156 12.511719 25.636719 12.273438 25.894531 C 12.242188 25.933594 12.234375 25.945312 12.203125 25.984375 C 12.140625 26.058594 12.097656 26.089844 12.039062 26.160156 C 11.933594 26.292969 11.851562 26.40625 11.757812 26.558594 C 11.5 26.988281 11.171875 27.941406 11.171875 28.628906 C 11.171875 29.152344 11.253906 29.652344 11.429688 30.074219 L 11.667969 30.59375 C 11.769531 30.800781 11.894531 30.992188 12.039062 31.167969 C 12.152344 31.3125 12.253906 31.453125 12.378906 31.589844 L 12.65625 31.886719 C 12.695312 31.925781 12.71875 31.925781 12.757812 31.96875 C 12.789062 31.996094 12.820312 32.027344 12.851562 32.058594 C 12.921875 32.132812 12.984375 32.171875 13.058594 32.234375 C 13.367188 32.488281 13.714844 32.726562 14.066406 32.917969 L 14.304688 33.054688 C 15.476562 33.566406 16.074219 33.738281 17.433594 33.914062 C 17.609375 33.933594 17.785156 33.953125 17.96875 33.953125 L 18.742188 33.953125 C 19.195312 33.933594 19.636719 33.894531 20.03125 33.820312 C 20.925781 33.667969 21.820312 33.433594 22.625 33.011719 C 23.039062 32.796875 23.429688 32.550781 23.800781 32.273438 C 24.117188 32.039062 24.664062 31.464844 24.902344 31.105469 C 25.335938 30.472656 25.695312 29.703125 25.695312 28.863281 C 25.695312 28.414062 25.664062 27.960938 25.539062 27.53125 C 25.355469 26.90625 25.054688 26.394531 24.644531 25.902344 L 24.4375 25.65625 C 24.367188 25.566406 24.285156 25.492188 24.191406 25.410156 C 24.109375 25.351562 24.109375 25.332031 24.003906 25.277344 C 24.046875 25.085938 24.3125 24.765625 24.4375 24.613281 L 24.757812 24.246094 C 25.085938 23.875 25.394531 23.496094 25.675781 23.085938 C 25.972656 22.65625 26.3125 22.257812 26.601562 21.816406 L 27.035156 21.160156 C 27.105469 21.046875 27.167969 20.925781 27.25 20.824219 C 27.394531 20.609375 27.589844 20.332031 27.589844 20.054688 C 27.589844 20.023438 27.464844 19.992188 27.433594 19.972656 C 27.15625 19.851562 26.589844 19.523438 26.324219 19.347656 L 23.253906 17.496094 C 22.789062 17.1875 22.757812 16.902344 22.984375 16.449219 C 23.253906 15.90625 23.574219 15.496094 23.746094 14.902344 C 24.085938 13.765625 24.015625 12.742188 23.707031 11.625 C 23.65625 11.453125 23.59375 11.289062 23.511719 11.125 C 23.429688 10.96875 23.367188 10.828125 23.273438 10.683594 C 23.191406 10.539062 23.097656 10.40625 23.007812 10.261719 C 22.769531 9.925781 22.492188 9.640625 22.203125 9.351562 C 22.140625 9.289062 22.089844 9.261719 22.027344 9.1875 C 21.964844 9.125 21.902344 9.097656 21.84375 9.035156 C 21.769531 8.972656 21.71875 8.933594 21.648438 8.882812 C 21.082031 8.480469 20.492188 8.164062 19.78125 8.011719 C 18.886719 7.824219 18.03125 7.796875 17.136719 8.011719 C 16.796875 8.09375 16.464844 8.203125 16.15625 8.347656 C 15.476562 8.65625 15.128906 8.960938 14.632812 9.453125 C 14.417969 9.667969 14.210938 9.914062 14.023438 10.160156 C 13.839844 10.417969 13.664062 10.683594 13.519531 10.96875 L 13.316406 11.421875 C 13.253906 11.5625 13.191406 11.75 13.148438 11.914062 C 12.972656 12.589844 12.933594 13.398438 13.035156 14.105469 C 13.117188 14.707031 13.261719 15.199219 13.53125 15.734375 C 13.613281 15.898438 13.707031 16.03125 13.796875 16.171875 C 13.839844 16.253906 13.890625 16.304688 13.941406 16.386719 L 14.589844 17.15625 C 14.664062 17.226562 14.703125 17.269531 14.765625 17.351562 C 14.839844 17.445312 15.210938 17.75 15.3125 17.863281 C 15.375 17.925781 15.4375 17.964844 15.496094 18.027344 L 15.867188 18.367188 C 15.910156 18.40625 15.921875 18.40625 15.960938 18.4375 C 16.003906 18.46875 16.023438 18.5 16.054688 18.527344 C 16.238281 18.691406 16.425781 18.867188 16.621094 19.03125 C 16.652344 19.0625 16.671875 19.082031 16.703125 19.113281 L 17.929688 20.207031 C 18.207031 20.453125 18.496094 20.691406 18.761719 20.957031 L 18.949219 21.121094 C 19.164062 21.316406 19.402344 21.5 19.609375 21.703125 L 20.75 22.699219 C 21.277344 23.117188 21.78125 23.570312 22.328125 23.96875 L 23.121094 24.59375 C 23.429688 24.828125 23.6875 24.941406 23.851562 25.289062 C 23.726562 25.371094 23.039062 26.148438 23.007812 26.28125 C 23.058594 26.292969 23.089844 26.332031 23.128906 26.363281 L 23.46875 26.671875 C 23.921875 27.113281 24.179688 27.757812 24.285156 28.371094 C 24.417969 29.160156 24.128906 29.847656 23.695312 30.429688 L 23.5 30.667969 C 23.460938 30.71875 23.449219 30.738281 23.398438 30.789062 C 23.222656 30.964844 23.046875 31.136719 22.851562 31.28125 C 22.644531 31.433594 22.441406 31.578125 22.214844 31.699219 L 21.019531 32.214844 L 20.359375 32.398438 C 20.234375 32.429688 20.132812 32.449219 20.007812 32.46875 C 19.453125 32.5625 18.925781 32.621094 18.339844 32.621094 C 17.257812 32.621094 16.238281 32.417969 15.324219 32.027344 L 14.703125 31.742188 C 14.449219 31.597656 14.210938 31.445312 13.972656 31.269531 C 13.910156 31.21875 13.871094 31.1875 13.796875 31.136719 C 13.644531 31.015625 13.46875 30.808594 13.335938 30.6875 C 13.203125 30.554688 13.035156 30.328125 12.945312 30.164062 C 12.695312 29.714844 12.53125 29.335938 12.53125 28.761719 C 12.53125 28.207031 12.6875 27.695312 12.953125 27.253906 C 12.984375 27.203125 13.003906 27.164062 13.046875 27.113281 C 13.085938 27.0625 13.109375 27.019531 13.140625 26.96875 C 13.335938 26.703125 13.675781 26.476562 13.828125 26.191406 C 13.984375 26.292969 14.117188 26.4375 14.25 26.558594 L 14.394531 26.683594 C 14.714844 26.957031 15.496094 27.828125 15.746094 28.011719 L 16.035156 28.257812 C 16.054688 28.28125 16.0625 28.300781 16.09375 28.320312 L 16.878906 29.015625 C 16.929688 29.070312 16.972656 29.089844 17.023438 29.140625 L 17.382812 29.457031 C 17.414062 29.488281 17.425781 29.488281 17.453125 29.519531 C 17.507812 29.570312 17.546875 29.601562 17.597656 29.640625 L 18.042969 30 C 18.132812 30.0625 18.257812 30.175781 18.359375 30.214844 C 18.824219 30.398438 22.605469 26.691406 22.914062 26.242188 C 22.789062 26.007812 22.757812 26.027344 22.542969 25.851562 C 22.398438 25.738281 22.273438 25.628906 22.121094 25.515625 C 21.265625 24.847656 20.429688 24.152344 19.578125 23.476562 L 18.949219 22.972656 C 18.875 22.902344 18.835938 22.851562 18.742188 22.789062 L 18.144531 22.246094 C 18.105469 22.207031 18.082031 22.207031 18.042969 22.164062 C 18 22.125 17.980469 22.113281 17.929688 22.074219 C 17.886719 22.03125 17.878906 22.023438 17.824219 21.992188 L 17.3125 21.550781 C 16.949219 21.210938 16.546875 20.914062 16.199219 20.558594 L 15.324219 19.738281 C 15.25 19.667969 15.199219 19.613281 15.128906 19.542969 L 14.136719 18.609375 C 13.65625 18.128906 13.242188 17.824219 12.832031 17.238281 L 12.519531 16.789062 C 11.675781 15.496094 11.398438 13.695312 11.625 12.167969 C 11.675781 11.851562 11.75 11.574219 11.832031 11.296875 C 11.914062 11.042969 12.046875 10.785156 12.152344 10.539062 C 12.179688 10.46875 12.203125 10.417969 12.234375 10.355469 C 12.265625 10.292969 12.285156 10.234375 12.316406 10.171875 C 12.632812 9.617188 12.542969 9.710938 13.015625 9.085938 C 13.179688 8.871094 13.367188 8.695312 13.550781 8.511719 L 13.769531 8.316406 C 13.984375 8.113281 14.210938 7.917969 14.449219 7.742188 C 14.5625 7.660156 14.652344 7.589844 14.777344 7.519531 C 15.332031 7.148438 16.054688 6.894531 16.734375 6.699219 C 17.773438 6.402344 19 6.421875 20.039062 6.679688 C 20.265625 6.730469 20.453125 6.792969 20.667969 6.863281 C 21.164062 7.015625 21.605469 7.261719 22.046875 7.519531 C 22.152344 7.582031 22.203125 7.632812 22.296875 7.691406 C 22.378906 7.742188 22.449219 7.804688 22.53125 7.867188 C 22.6875 7.980469 22.839844 8.101562 22.984375 8.234375 L 23.203125 8.441406 C 23.273438 8.511719 23.335938 8.574219 23.40625 8.644531 L 23.6875 8.972656 C 24.4375 9.945312 24.992188 10.949219 25.199219 12.179688 C 25.375 13.203125 25.230469 14.21875 24.984375 15.199219 C 24.890625 15.589844 24.59375 16.316406 24.40625 16.695312 C 24.488281 16.738281 24.582031 16.765625 24.664062 16.808594 C 25.386719 17.1875 27.878906 18.855469 28.1875 18.855469 C 28.25 18.855469 28.425781 18.445312 28.445312 18.375 C 28.484375 18.285156 28.515625 18.203125 28.558594 18.109375 C 28.578125 18.058594 28.597656 18.039062 28.609375 17.976562 C 28.847656 17.308594 29.011719 16.777344 29.175781 16.089844 C 29.402344 15.222656 29.445312 14.542969 29.445312 13.625 C 29.445312 13.398438 29.414062 13.214844 29.414062 13 C 29.402344 12.792969 29.371094 12.578125 29.351562 12.394531 C 29.300781 11.902344 29.207031 11.441406 29.074219 10.992188 C 28.949219 10.5625 28.804688 10.160156 28.628906 9.75 L 28.425781 9.28125 C 28.257812 8.902344 28.054688 8.542969 27.835938 8.195312 C 27.546875 7.714844 27.207031 7.261719 26.859375 6.820312 C 26.664062 6.578125 26.445312 6.339844 26.21875 6.117188 C 26.117188 6.011719 25.992188 5.898438 25.890625 5.789062 C 25.859375 5.757812 25.839844 5.738281 25.808594 5.707031 L 25.355469 5.316406 C 24.910156 4.957031 24.449219 4.628906 23.953125 4.355469 C 23.625 4.167969 23.285156 4.003906 22.945312 3.851562 C 22.902344 3.832031 22.882812 3.820312 22.832031 3.800781 C 22.222656 3.542969 21.730469 3.359375 21.050781 3.21875 C 19.863281 2.972656 19.464844 2.867188 18.226562 2.867188 C 18.09375 2.867188 18.019531 2.878906 17.90625 2.890625 L 16.40625 3.074219 C 15.414062 3.238281 14.46875 3.554688 13.5625 3.976562 C 13.191406 4.148438 12.832031 4.363281 12.492188 4.589844 C 12.347656 4.679688 12.222656 4.785156 12.089844 4.875 C 11.820312 5.070312 11.5625 5.253906 11.316406 5.460938 L 11.046875 5.695312 C 10.8125 5.898438 10.566406 6.117188 10.347656 6.359375 C 10.316406 6.402344 10.308594 6.414062 10.277344 6.453125 C 10.164062 6.578125 10.050781 6.667969 9.957031 6.800781 L 9.371094 7.570312 C 9.183594 7.835938 9 8.113281 8.835938 8.398438 C 8.75 8.554688 8.679688 8.675781 8.597656 8.839844 C 8.390625 9.25 8.238281 9.585938 8.070312 10.007812 C 7.609375 11.15625 7.371094 12.496094 7.371094 13.726562 Z M 7.453125 13.726562 " clip-rule="evenodd"/></clipPath><linearGradient x1="10.62" gradientTransform="matrix(1.02995, 0, 0, 1.024235, 7.454054, 2.868631)" y1="0.00000869658" x2="10.62" gradientUnits="userSpaceOnUse" y2="30.349999" id="5d5362178f"><stop stop-opacity="1" stop-color="rgb(25.498962%, 73.298645%, 86.698914%)" offset="0"/><stop stop-opacity="1" stop-color="rgb(25.498962%, 73.298645%, 86.698914%)" offset="0.125"/><stop stop-opacity="1" stop-color="rgb(25.498962%, 73.298645%, 86.698914%)" offset="0.15625"/><stop stop-opacity="1" stop-color="rgb(25.500488%, 73.188782%, 86.662292%)" offset="0.164063"/><stop stop-opacity="1" stop-color="rgb(25.508118%, 72.839355%, 86.5448%)" offset="0.167969"/><stop stop-opacity="1" stop-color="rgb(25.514221%, 72.599792%, 86.463928%)" offset="0.171875"/><stop stop-opacity="1" stop-color="rgb(25.518799%, 72.358704%, 86.383057%)" offset="0.175781"/><stop stop-opacity="1" stop-color="rgb(25.524902%, 72.119141%, 86.303711%)" offset="0.179688"/><stop stop-opacity="1" stop-color="rgb(25.52948%, 71.879578%, 86.222839%)" offset="0.183594"/><stop stop-opacity="1" stop-color="rgb(25.535583%, 71.640015%, 86.143494%)" offset="0.1875"/><stop stop-opacity="1" stop-color="rgb(25.540161%, 71.400452%, 86.062622%)" offset="0.191406"/><stop stop-opacity="1" stop-color="rgb(25.546265%, 71.160889%, 85.983276%)" offset="0.195313"/><stop stop-opacity="1" stop-color="rgb(25.550842%, 70.921326%, 85.902405%)" offset="0.199219"/><stop stop-opacity="1" stop-color="rgb(25.556946%, 70.681763%, 85.821533%)" offset="0.203125"/><stop stop-opacity="1" stop-color="rgb(25.561523%, 70.4422%, 85.740662%)" offset="0.207031"/><stop stop-opacity="1" stop-color="rgb(25.567627%, 70.202637%, 85.661316%)" offset="0.210938"/><stop stop-opacity="1" stop-color="rgb(25.572205%, 69.963074%, 85.580444%)" offset="0.214844"/><stop stop-opacity="1" stop-color="rgb(25.578308%, 69.723511%, 85.501099%)" offset="0.21875"/><stop stop-opacity="1" stop-color="rgb(25.582886%, 69.483948%, 85.420227%)" offset="0.222656"/><stop stop-opacity="1" stop-color="rgb(25.588989%, 69.244385%, 85.340881%)" offset="0.226562"/><stop stop-opacity="1" stop-color="rgb(25.593567%, 69.004822%, 85.26001%)" offset="0.230469"/><stop stop-opacity="1" stop-color="rgb(25.598145%, 68.765259%, 85.179138%)" offset="0.234375"/><stop stop-opacity="1" stop-color="rgb(25.602722%, 68.525696%, 85.098267%)" offset="0.238281"/><stop stop-opacity="1" stop-color="rgb(25.608826%, 68.286133%, 85.018921%)" offset="0.242188"/><stop stop-opacity="1" stop-color="rgb(25.613403%, 68.04657%, 84.938049%)" offset="0.246094"/><stop stop-opacity="1" stop-color="rgb(25.619507%, 67.807007%, 84.858704%)" offset="0.25"/><stop stop-opacity="1" stop-color="rgb(25.624084%, 67.567444%, 84.777832%)" offset="0.253906"/><stop stop-opacity="1" stop-color="rgb(25.630188%, 67.327881%, 84.698486%)" offset="0.257813"/><stop stop-opacity="1" stop-color="rgb(25.634766%, 67.088318%, 84.617615%)" offset="0.261719"/><stop stop-opacity="1" stop-color="rgb(25.640869%, 66.848755%, 84.536743%)" offset="0.265625"/><stop stop-opacity="1" stop-color="rgb(25.645447%, 66.609192%, 84.455872%)" offset="0.269531"/><stop stop-opacity="1" stop-color="rgb(25.65155%, 66.369629%, 84.376526%)" offset="0.273438"/><stop stop-opacity="1" stop-color="rgb(25.656128%, 66.130066%, 84.295654%)" offset="0.277344"/><stop stop-opacity="1" stop-color="rgb(25.662231%, 65.890503%, 84.216309%)" offset="0.28125"/><stop stop-opacity="1" stop-color="rgb(25.666809%, 65.65094%, 84.135437%)" offset="0.285156"/><stop stop-opacity="1" stop-color="rgb(25.672913%, 65.411377%, 84.054565%)" offset="0.289063"/><stop stop-opacity="1" stop-color="rgb(25.67749%, 65.171814%, 83.973694%)" offset="0.292969"/><stop stop-opacity="1" stop-color="rgb(25.683594%, 64.932251%, 83.894348%)" offset="0.296875"/><stop stop-opacity="1" stop-color="rgb(25.688171%, 64.691162%, 83.813477%)" offset="0.300781"/><stop stop-opacity="1" stop-color="rgb(25.694275%, 64.451599%, 83.734131%)" offset="0.304688"/><stop stop-opacity="1" stop-color="rgb(25.698853%, 64.212036%, 83.653259%)" offset="0.308594"/><stop stop-opacity="1" stop-color="rgb(25.704956%, 63.972473%, 83.573914%)" offset="0.3125"/><stop stop-opacity="1" stop-color="rgb(25.709534%, 63.73291%, 83.493042%)" offset="0.316406"/><stop stop-opacity="1" stop-color="rgb(25.714111%, 63.493347%, 83.41217%)" offset="0.320313"/><stop stop-opacity="1" stop-color="rgb(25.718689%, 63.253784%, 83.331299%)" offset="0.324219"/><stop stop-opacity="1" stop-color="rgb(25.724792%, 63.014221%, 83.251953%)" offset="0.328125"/><stop stop-opacity="1" stop-color="rgb(25.72937%, 62.774658%, 83.171082%)" offset="0.332031"/><stop stop-opacity="1" stop-color="rgb(25.735474%, 62.535095%, 83.091736%)" offset="0.335938"/><stop stop-opacity="1" stop-color="rgb(25.740051%, 62.295532%, 83.010864%)" offset="0.339844"/><stop stop-opacity="1" stop-color="rgb(25.746155%, 62.055969%, 82.931519%)" offset="0.34375"/><stop stop-opacity="1" stop-color="rgb(25.750732%, 61.816406%, 82.850647%)" offset="0.347656"/><stop stop-opacity="1" stop-color="rgb(25.756836%, 61.576843%, 82.769775%)" offset="0.351563"/><stop stop-opacity="1" stop-color="rgb(25.761414%, 61.33728%, 82.688904%)" offset="0.355469"/><stop stop-opacity="1" stop-color="rgb(25.767517%, 61.097717%, 82.609558%)" offset="0.359375"/><stop stop-opacity="1" stop-color="rgb(25.772095%, 60.858154%, 82.528687%)" offset="0.363281"/><stop stop-opacity="1" stop-color="rgb(25.778198%, 60.618591%, 82.449341%)" offset="0.367188"/><stop stop-opacity="1" stop-color="rgb(25.782776%, 60.379028%, 82.368469%)" offset="0.371094"/><stop stop-opacity="1" stop-color="rgb(25.788879%, 60.139465%, 82.289124%)" offset="0.375"/><stop stop-opacity="1" stop-color="rgb(25.793457%, 59.899902%, 82.208252%)" offset="0.378906"/><stop stop-opacity="1" stop-color="rgb(25.799561%, 59.660339%, 82.12738%)" offset="0.382813"/><stop stop-opacity="1" stop-color="rgb(25.804138%, 59.420776%, 82.046509%)" offset="0.386719"/><stop stop-opacity="1" stop-color="rgb(25.810242%, 59.181213%, 81.967163%)" offset="0.390625"/><stop stop-opacity="1" stop-color="rgb(25.814819%, 58.94165%, 81.886292%)" offset="0.394531"/><stop stop-opacity="1" stop-color="rgb(25.819397%, 58.702087%, 81.806946%)" offset="0.398438"/><stop stop-opacity="1" stop-color="rgb(25.823975%, 58.462524%, 81.726074%)" offset="0.402344"/><stop stop-opacity="1" stop-color="rgb(25.830078%, 58.222961%, 81.646729%)" offset="0.40625"/><stop stop-opacity="1" stop-color="rgb(25.834656%, 57.983398%, 81.565857%)" offset="0.410156"/><stop stop-opacity="1" stop-color="rgb(25.840759%, 57.743835%, 81.484985%)" offset="0.414062"/><stop stop-opacity="1" stop-color="rgb(25.845337%, 57.504272%, 81.404114%)" offset="0.417969"/><stop stop-opacity="1" stop-color="rgb(25.85144%, 57.264709%, 81.324768%)" offset="0.421875"/><stop stop-opacity="1" stop-color="rgb(25.856018%, 57.023621%, 81.243896%)" offset="0.425781"/><stop stop-opacity="1" stop-color="rgb(25.862122%, 56.784058%, 81.164551%)" offset="0.429688"/><stop stop-opacity="1" stop-color="rgb(25.866699%, 56.544495%, 81.083679%)" offset="0.433594"/><stop stop-opacity="1" stop-color="rgb(25.872803%, 56.304932%, 81.002808%)" offset="0.4375"/><stop stop-opacity="1" stop-color="rgb(25.87738%, 56.065369%, 80.921936%)" offset="0.441406"/><stop stop-opacity="1" stop-color="rgb(25.883484%, 55.825806%, 80.84259%)" offset="0.445313"/><stop stop-opacity="1" stop-color="rgb(25.888062%, 55.586243%, 80.761719%)" offset="0.449219"/><stop stop-opacity="1" stop-color="rgb(25.894165%, 55.34668%, 80.682373%)" offset="0.453125"/><stop stop-opacity="1" stop-color="rgb(25.898743%, 55.107117%, 80.601501%)" offset="0.457031"/><stop stop-opacity="1" stop-color="rgb(25.904846%, 54.867554%, 80.522156%)" offset="0.460938"/><stop stop-opacity="1" stop-color="rgb(25.909424%, 54.627991%, 80.441284%)" offset="0.464844"/><stop stop-opacity="1" stop-color="rgb(25.915527%, 54.388428%, 80.360413%)" offset="0.46875"/><stop stop-opacity="1" stop-color="rgb(25.920105%, 54.148865%, 80.279541%)" offset="0.472656"/><stop stop-opacity="1" stop-color="rgb(25.924683%, 53.909302%, 80.200195%)" offset="0.476563"/><stop stop-opacity="1" stop-color="rgb(25.92926%, 53.669739%, 80.119324%)" offset="0.480469"/><stop stop-opacity="1" stop-color="rgb(25.935364%, 53.430176%, 80.039978%)" offset="0.484375"/><stop stop-opacity="1" stop-color="rgb(25.939941%, 53.190613%, 79.959106%)" offset="0.488281"/><stop stop-opacity="1" stop-color="rgb(25.946045%, 52.95105%, 79.879761%)" offset="0.492188"/><stop stop-opacity="1" stop-color="rgb(25.950623%, 52.711487%, 79.798889%)" offset="0.496094"/><stop stop-opacity="1" stop-color="rgb(25.956726%, 52.471924%, 79.718018%)" offset="0.5"/><stop stop-opacity="1" stop-color="rgb(25.961304%, 52.232361%, 79.637146%)" offset="0.503906"/><stop stop-opacity="1" stop-color="rgb(25.967407%, 51.992798%, 79.5578%)" offset="0.507813"/><stop stop-opacity="1" stop-color="rgb(25.971985%, 51.753235%, 79.476929%)" offset="0.511719"/><stop stop-opacity="1" stop-color="rgb(25.978088%, 51.513672%, 79.397583%)" offset="0.515625"/><stop stop-opacity="1" stop-color="rgb(25.982666%, 51.274109%, 79.316711%)" offset="0.519531"/><stop stop-opacity="1" stop-color="rgb(25.98877%, 51.034546%, 79.237366%)" offset="0.523438"/><stop stop-opacity="1" stop-color="rgb(25.993347%, 50.794983%, 79.156494%)" offset="0.527344"/><stop stop-opacity="1" stop-color="rgb(25.999451%, 50.55542%, 79.075623%)" offset="0.53125"/><stop stop-opacity="1" stop-color="rgb(26.004028%, 50.315857%, 78.994751%)" offset="0.535156"/><stop stop-opacity="1" stop-color="rgb(26.010132%, 50.076294%, 78.915405%)" offset="0.539063"/><stop stop-opacity="1" stop-color="rgb(26.014709%, 49.836731%, 78.834534%)" offset="0.542969"/><stop stop-opacity="1" stop-color="rgb(26.020813%, 49.597168%, 78.755188%)" offset="0.546875"/><stop stop-opacity="1" stop-color="rgb(26.025391%, 49.356079%, 78.674316%)" offset="0.550781"/><stop stop-opacity="1" stop-color="rgb(26.029968%, 49.116516%, 78.594971%)" offset="0.554688"/><stop stop-opacity="1" stop-color="rgb(26.034546%, 48.876953%, 78.514099%)" offset="0.558594"/><stop stop-opacity="1" stop-color="rgb(26.040649%, 48.63739%, 78.433228%)" offset="0.5625"/><stop stop-opacity="1" stop-color="rgb(26.045227%, 48.397827%, 78.352356%)" offset="0.566406"/><stop stop-opacity="1" stop-color="rgb(26.051331%, 48.158264%, 78.27301%)" offset="0.570312"/><stop stop-opacity="1" stop-color="rgb(26.055908%, 47.918701%, 78.192139%)" offset="0.574219"/><stop stop-opacity="1" stop-color="rgb(26.062012%, 47.679138%, 78.112793%)" offset="0.578125"/><stop stop-opacity="1" stop-color="rgb(26.066589%, 47.439575%, 78.031921%)" offset="0.582031"/><stop stop-opacity="1" stop-color="rgb(26.072693%, 47.200012%, 77.95105%)" offset="0.585938"/><stop stop-opacity="1" stop-color="rgb(26.077271%, 46.960449%, 77.870178%)" offset="0.589844"/><stop stop-opacity="1" stop-color="rgb(26.083374%, 46.720886%, 77.790833%)" offset="0.59375"/><stop stop-opacity="1" stop-color="rgb(26.087952%, 46.481323%, 77.709961%)" offset="0.597656"/><stop stop-opacity="1" stop-color="rgb(26.094055%, 46.24176%, 77.630615%)" offset="0.601562"/><stop stop-opacity="1" stop-color="rgb(26.098633%, 46.002197%, 77.549744%)" offset="0.605469"/><stop stop-opacity="1" stop-color="rgb(26.104736%, 45.762634%, 77.470398%)" offset="0.609375"/><stop stop-opacity="1" stop-color="rgb(26.109314%, 45.523071%, 77.389526%)" offset="0.613281"/><stop stop-opacity="1" stop-color="rgb(26.115417%, 45.283508%, 77.308655%)" offset="0.617188"/><stop stop-opacity="1" stop-color="rgb(26.119995%, 45.043945%, 77.227783%)" offset="0.621094"/><stop stop-opacity="1" stop-color="rgb(26.126099%, 44.804382%, 77.148438%)" offset="0.625"/><stop stop-opacity="1" stop-color="rgb(26.130676%, 44.564819%, 77.067566%)" offset="0.628906"/><stop stop-opacity="1" stop-color="rgb(26.13678%, 44.325256%, 76.98822%)" offset="0.632812"/><stop stop-opacity="1" stop-color="rgb(26.141357%, 44.085693%, 76.907349%)" offset="0.636719"/><stop stop-opacity="1" stop-color="rgb(26.145935%, 43.84613%, 76.828003%)" offset="0.640625"/><stop stop-opacity="1" stop-color="rgb(26.150513%, 43.606567%, 76.747131%)" offset="0.644531"/><stop stop-opacity="1" stop-color="rgb(26.156616%, 43.367004%, 76.66626%)" offset="0.648438"/><stop stop-opacity="1" stop-color="rgb(26.161194%, 43.127441%, 76.585388%)" offset="0.652344"/><stop stop-opacity="1" stop-color="rgb(26.167297%, 42.887878%, 76.506042%)" offset="0.65625"/><stop stop-opacity="1" stop-color="rgb(26.171875%, 42.648315%, 76.425171%)" offset="0.660156"/><stop stop-opacity="1" stop-color="rgb(26.177979%, 42.408752%, 76.345825%)" offset="0.664062"/><stop stop-opacity="1" stop-color="rgb(26.182556%, 42.169189%, 76.264954%)" offset="0.667969"/><stop stop-opacity="1" stop-color="rgb(26.18866%, 41.929626%, 76.185608%)" offset="0.671875"/><stop stop-opacity="1" stop-color="rgb(26.193237%, 41.688538%, 76.104736%)" offset="0.675781"/><stop stop-opacity="1" stop-color="rgb(26.199341%, 41.448975%, 76.023865%)" offset="0.679688"/><stop stop-opacity="1" stop-color="rgb(26.203918%, 41.209412%, 75.942993%)" offset="0.683594"/><stop stop-opacity="1" stop-color="rgb(26.210022%, 40.969849%, 75.863647%)" offset="0.6875"/><stop stop-opacity="1" stop-color="rgb(26.2146%, 40.730286%, 75.782776%)" offset="0.691406"/><stop stop-opacity="1" stop-color="rgb(26.220703%, 40.490723%, 75.70343%)" offset="0.695312"/><stop stop-opacity="1" stop-color="rgb(26.225281%, 40.25116%, 75.622559%)" offset="0.699219"/><stop stop-opacity="1" stop-color="rgb(26.231384%, 40.011597%, 75.543213%)" offset="0.703125"/><stop stop-opacity="1" stop-color="rgb(26.235962%, 39.772034%, 75.462341%)" offset="0.707031"/><stop stop-opacity="1" stop-color="rgb(26.242065%, 39.532471%, 75.38147%)" offset="0.710937"/><stop stop-opacity="1" stop-color="rgb(26.246643%, 39.292908%, 75.300598%)" offset="0.714844"/><stop stop-opacity="1" stop-color="rgb(26.251221%, 39.053345%, 75.221252%)" offset="0.71875"/><stop stop-opacity="1" stop-color="rgb(26.255798%, 38.813782%, 75.140381%)" offset="0.722656"/><stop stop-opacity="1" stop-color="rgb(26.261902%, 38.574219%, 75.061035%)" offset="0.726562"/><stop stop-opacity="1" stop-color="rgb(26.266479%, 38.334656%, 74.980164%)" offset="0.730469"/><stop stop-opacity="1" stop-color="rgb(26.272583%, 38.095093%, 74.900818%)" offset="0.734375"/><stop stop-opacity="1" stop-color="rgb(26.277161%, 37.85553%, 74.819946%)" offset="0.738281"/><stop stop-opacity="1" stop-color="rgb(26.283264%, 37.615967%, 74.739075%)" offset="0.742187"/><stop stop-opacity="1" stop-color="rgb(26.287842%, 37.376404%, 74.658203%)" offset="0.746094"/><stop stop-opacity="1" stop-color="rgb(26.293945%, 37.136841%, 74.578857%)" offset="0.75"/><stop stop-opacity="1" stop-color="rgb(26.295471%, 37.017822%, 74.539185%)" offset="1"/></linearGradient></defs><g clip-path="url(#73b21818f3)"><path fill="#ffffff" d="M 0 0 L 37.007812 0 L 37.007812 37.007812 L 0 37.007812 Z M 0 0 " fill-opacity="1" fill-rule="nonzero"/><path fill="#ffffff" d="M 0 0 L 37.007812 0 L 37.007812 37.007812 L 0 37.007812 Z M 0 0 " fill-opacity="1" fill-rule="nonzero"/></g><g clip-path="url(#5cc893c782)"><g clip-path="url(#14fd664f89)"><path fill="url(#5d5362178f)" d="M 7.558594 2.867188 L 7.558594 33.953125 L 29.445312 33.953125 L 29.445312 2.867188 Z M 7.558594 2.867188 " fill-rule="nonzero"/></g></g></svg>